<?xml version="1.0" encoding="utf-8"?>
<!-- Generator: Adobe Illustrator 16.0.0, SVG Export Plug-In . SVG Version: 6.00 Build 0)  -->
<!DOCTYPE svg PUBLIC "-//W3C//DTD SVG 1.1//EN" "http://www.w3.org/Graphics/SVG/1.1/DTD/svg11.dtd">
<svg version="1.1" id="guides__x26__Color" xmlns="http://www.w3.org/2000/svg" xmlns:xlink="http://www.w3.org/1999/xlink" x="0px"
	 y="0px" width="1329px" height="848.568px" viewBox="0 0 1329 848.568" enable-background="new 0 0 1329 848.568"
	 xml:space="preserve">
<g>
	<defs>
		<rect id="SVGID_1_" width="1329" height="849"/>
	</defs>
	<clipPath id="SVGID_2_">
		<use xlink:href="#SVGID_1_"  overflow="visible"/>
	</clipPath>
	<g transform="matrix(1 0 0 1 0 0)" opacity="0.3" clip-path="url(#SVGID_2_)">
		
			<image overflow="visible" width="612" height="501" xlink:href="866E9ABD.jpg"  transform="matrix(2.1694 0 0 2.1694 1.3384 -136.4941)">
		</image>
	</g>
</g>
<g>
	<text transform="matrix(1 0 0 1 147.4028 56.292)" font-family="'Poppins-Bold'" font-size="28">THE ROBOTS ARE HERE. ARE YOU READY TO TAP INTO THE OPPORTUNITY?</text>
</g>
<g>
	<rect x="32.5" y="122.5" opacity="0.1" fill="none" stroke="#000000" stroke-miterlimit="10" width="309" height="312"/>
	<g>
		<image overflow="visible" opacity="0.1" width="307" height="67" xlink:href="866E9ABF.png"  transform="matrix(1 0 0 1 34 86)">
		</image>
		<g>
			<rect x="40" y="92" fill="#FFFFFF" width="294" height="54"/>
		</g>
	</g>
	<g>
		<text transform="matrix(1 0 0 1 66.8135 112.6807)"><tspan x="0" y="0" font-family="'Poppins-Medium'" font-size="15">Industrial Robots, the Largest &amp; </tspan><tspan x="-17.91" y="19" font-family="'Poppins-Medium'" font-size="15">Traditional Revenue Spinning Sector</tspan></text>
	</g>
	<rect x="53" y="310" fill="#B7B7B7" width="42" height="51"/>
	<rect x="105" y="287" fill="#8D8D8D" width="42" height="74"/>
	<rect x="159" y="263" width="42" height="98"/>
	<rect x="214" y="233" fill="#40B8E2" width="43" height="128"/>
	<rect x="274" y="187" fill="#04489B" width="43" height="174"/>
	<g>
		<text transform="matrix(1 0 0 1 276.3174 381.6445)" font-family="'Poppins-Medium'" font-size="15">2030</text>
	</g>
	<g>
		<text transform="matrix(1 0 0 1 218.9902 381.6445)" font-family="'Poppins-Medium'" font-size="15">2028</text>
	</g>
	<g>
		<text transform="matrix(1 0 0 1 162.5908 381.6445)" font-family="'Poppins-Medium'" font-size="15">2026</text>
	</g>
	<g>
		<text transform="matrix(1 0 0 1 110.0352 381.6445)" font-family="'Poppins-Medium'" font-size="15">2024</text>
	</g>
	<g>
		<text transform="matrix(1 0 0 1 54.562 381.6445)" font-family="'Poppins-Medium'" font-size="15">2022</text>
	</g>
	<text transform="matrix(1 0 0 1 277.5469 180.0957)" fill="#04489B" font-family="'Poppins-Medium'" font-size="15">237.4</text>
	<text transform="matrix(1 0 0 1 218.7617 226.8076)" fill="#40B8E2" font-family="'Poppins-Medium'" font-size="15">181.9</text>
	<text transform="matrix(1 0 0 1 161.5918 256.3096)" font-family="'Poppins-Medium'" font-size="15">148.3</text>
	<text transform="matrix(1 0 0 1 112.5771 282.124)" fill="#8D8D8D" font-family="'Poppins-Medium'" font-size="15">118.1</text>
	<text transform="matrix(1 0 0 1 60.9478 305.4795)" fill="#B7B7B7" font-family="'Poppins-Medium'" font-size="15">91.6</text>
	<rect x="351.5" y="122.5" opacity="0.1" fill="none" stroke="#000000" stroke-miterlimit="10" width="309" height="312"/>
	<g>
		<image overflow="visible" opacity="0.1" width="307" height="67" xlink:href="866E9ABD.png"  transform="matrix(1 0 0 1 353 86)">
		</image>
		<g>
			<rect x="359" y="92" fill="#FFFFFF" width="294" height="54"/>
		</g>
	</g>
	<rect x="363" y="360" fill="#04489B" width="5" height="16"/>
	<path fill="#A8A8A8" d="M500,251.107l-58.578-50.92c15.299-17.6,34.578-26.696,58.578-26.696V251.107z"/>
	<rect x="479" y="360" fill="#74B8D6" width="4" height="16"/>
	<rect x="479" y="383" fill="#8CC9EA" width="4" height="16"/>
	<rect x="581" y="360" fill="#A8A8A8" width="4" height="16"/>
	<path fill="#757575" d="M499.534,251.107l-65.822-41.131c2.271-3.634,4.433-6.555,7.245-9.789L499.534,251.107z"/>
	<rect x="363" y="383" width="5" height="16"/>
	<path d="M499.534,251.107l-77.428-5.415c0.921-13.17,4.608-24.518,11.605-35.716L499.534,251.107z"/>
	<path fill="#8CC9EA" d="M499.534,251.107l-54.883,54.884c-16.489-16.489-24.17-37.036-22.544-60.299L499.534,251.107z"/>
	<path fill="#74B8D6" d="M499.534,251.107l35.237,69.157c-30.708,15.647-65.751,10.098-90.121-14.272L499.534,251.107z"/>
	<rect x="581" y="383" fill="#757575" width="4" height="16"/>
	<path fill="#04489B" d="M500,251.107v-77.616c42,0,77.384,34.751,77.384,77.616c0,30.007-15.527,55.534-42.264,69.157L500,251.107z
		"/>
	<g>
		<text transform="matrix(1 0 0 1 587.4961 373.2529)" font-family="'Poppins-Light'" font-size="12">Others</text>
	</g>
	<g>
		<text transform="matrix(1 0 0 1 588.0332 396.4019)" font-family="'Poppins-Light'" font-size="12">Cobots</text>
	</g>
	<g>
		<text transform="matrix(1 0 0 1 370.7607 396.4019)" font-family="'Poppins-Light'" font-size="12">Cleaning Robots</text>
	</g>
	<g>
		<text transform="matrix(1 0 0 1 486.5449 396.4019)" font-family="'Poppins-Light'" font-size="12">Healthcare </text>
	</g>
	<g>
		<text transform="matrix(1 0 0 1 486.0332 373.252)" font-family="'Poppins-Light'" font-size="12">Military Robots</text>
	</g>
	<text transform="matrix(1 0 0 1 370.7607 373.252)" font-family="'Poppins-Light'" font-size="12">Industrial Robots</text>
	<rect x="1005" y="360" fill="#04489B" width="5" height="16"/>
	<rect x="1169" y="360" width="4" height="16"/>
	<rect x="1169" y="383" fill="#8CC9EA" width="4" height="16"/>
	<rect x="1005" y="383" width="5" height="16"/>
	<g>
		<text transform="matrix(1 0 0 1 1012.7607 396.4019)" font-family="'Poppins-Light'" font-size="12">Orthopedic Surgeries</text>
	</g>
	<g>
		<text transform="matrix(1 0 0 1 1176.5449 396.4019)" font-family="'Poppins-Light'" font-size="12">Other Applications</text>
	</g>
	<g>
		<text transform="matrix(1 0 0 1 1176.0332 373.252)" font-family="'Poppins-Light'" font-size="12">Neurosurgeries</text>
	</g>
	<g>
		<text transform="matrix(1 0 0 1 1012.7607 373.252)" font-family="'Poppins-Light'" font-size="12">Laparoscopy</text>
	</g>
	<rect x="735" y="360" fill="#74B8D6" width="4" height="16"/>
	<rect x="735" y="383" width="4" height="15"/>
	<g>
		<text transform="matrix(1 0 0 1 745.377 370.1572)" font-family="'Poppins-Light'" font-size="12">Professional Service Robots</text>
	</g>
	<g>
		<text transform="matrix(1 0 0 1 745.377 394.1572)" font-family="'Poppins-Light'" font-size="12">Personal Service Robots</text>
	</g>
	<circle fill="#FFFFFF" cx="499.141" cy="251.118" r="40.863"/>
	<circle fill="#04489B" cx="575.087" cy="232.814" r="4.864"/>
	<circle fill="#04489B" cx="906.087" cy="236.814" r="4.864"/>
	<circle fill="#74B8D6" cx="494.087" cy="328.814" r="4.864"/>
	<circle fill="#8CC9EA" cx="427.087" cy="279.814" r="4.864"/>
	<circle cx="425.087" cy="227.814" r="4.864"/>
	<circle fill="#757575" cx="437.087" cy="204.814" r="4.864"/>
	<circle fill="#A8A8A8" cx="467.087" cy="180.814" r="4.864"/>
	<text transform="matrix(1 0 0 1 583.4648 238.582)" fill="#04489B" font-family="'Poppins-Medium'" font-size="15">42.5</text>
	<text transform="matrix(1 0 0 1 437.9941 175.0601)" fill="#A8A8A8" font-family="'Poppins-Medium'" font-size="15">13.6</text>
	<text transform="matrix(1 0 0 1 406.6147 203.1523)" fill="#757575" font-family="'Poppins-Medium'" font-size="15">2.5</text>
	<text transform="matrix(1 0 0 1 396.2124 229.707)" font-family="'Poppins-Medium'" font-size="15">7.7</text>
	<text transform="matrix(1 0 0 1 391.0142 288.6768)" fill="#8CC9EA" font-family="'Poppins-Medium'" font-size="15">13.6</text>
	<text transform="matrix(1 0 0 1 480.1606 349.1274)" fill="#74B8D6" font-family="'Poppins-Medium'" font-size="15">20.1</text>
	<g>
		<text transform="matrix(1 0 0 1 712.0801 277.4907)" fill="#8CC9EA" font-family="'Poppins-Medium'" font-size="15">63.5</text>
		<text transform="matrix(1 0 0 1 917.6572 240.7466)" fill="#04489B" font-family="'Poppins-Medium'" font-size="15">34.7</text>
		<g>
			<g>
				<g>
					<path fill="#04489B" d="M829.545,250.281l3.819-79.169c42.899,2.297,75.979,39.594,73.729,83.46
						c-1.032,20.179-9.055,38.152-22.549,51.95L829.545,250.281z"/>
				</g>
			</g>
			<g>
				<g>
					<path fill="#8CC9EA" d="M829.545,250.281l55,56.241c-30.731,31.425-79.877,31.317-110.252,0.257
						c-30.378-31.062-30.501-81.292-0.123-112.354c16.4-16.772,36.091-24.619,59.258-23.376L829.545,250.281z"/>
				</g>
			</g>
		</g>
		<ellipse fill="#FFFFFF" cx="829.761" cy="250.434" rx="45.399" ry="46.422"/>
	</g>
	<g>
		<text transform="matrix(1 0 0 1 385.0215 112.6807)"><tspan x="0" y="0" font-family="'Poppins-Medium'" font-size="15">Industrial Robots, the Largest &amp; </tspan><tspan x="-17.91" y="19" font-family="'Poppins-Medium'" font-size="15">Traditional Revenue Spinning Sector</tspan></text>
	</g>
	<rect x="672.5" y="122.5" opacity="0.1" fill="none" stroke="#000000" stroke-miterlimit="10" width="309" height="312"/>
	<g>
		<image overflow="visible" opacity="0.1" width="307" height="67" xlink:href="866E9ABB.png"  transform="matrix(1 0 0 1 674 86)">
		</image>
		<g>
			<rect x="680" y="92" fill="#FFFFFF" width="294" height="54"/>
		</g>
	</g>
	<g>
		<text transform="matrix(1 0 0 1 713.6104 112.6807)"><tspan x="0" y="0" font-family="'Poppins-Medium'" font-size="15">Professional Robots, the Most </tspan><tspan x="-6.494" y="19" font-family="'Poppins-Medium'" font-size="15">Popular Type of Service Robots </tspan></text>
	</g>
	<circle fill="#8CC9EA" cx="754.087" cy="270.814" r="4.864"/>
	<rect x="993.5" y="122.5" opacity="0.1" fill="none" stroke="#000000" stroke-miterlimit="10" width="309" height="312"/>
	<g>
		<image overflow="visible" opacity="0.1" width="307" height="67" xlink:href="866E9AC5.png"  transform="matrix(1 0 0 1 995 86)">
		</image>
		<g>
			<rect x="1001" y="92" fill="#FFFFFF" width="294" height="54"/>
		</g>
	</g>
	<g>
		<text transform="matrix(1 0 0 1 1027.8682 106.8296)"><tspan x="0" y="0" font-family="'Poppins-Medium'" font-size="15">Healthcare in the Spotlight With </tspan><tspan x="6.442" y="16" font-family="'Poppins-Medium'" font-size="15">Laparoscopy as a High Growth</tspan><tspan x="57.449" y="32" font-family="'Poppins-Medium'" font-size="15">Application Area </tspan></text>
	</g>
	<g>
		<g>
			<g>
				<g>
					<path fill="#757575" d="M1142,250.309l-69.832-34.406c13.243-27.428,41.832-44.08,69.832-44.08V250.309z"/>
				</g>
			</g>
			<g>
				<g>
					<path d="M1143.109,250.5l-53.488,57.541c-25.597-23.944-32.346-60.474-17.003-92.031L1143.109,250.5z"/>
				</g>
			</g>
			<g>
				<g>
					<path fill="#8CC9EA" d="M1142.782,250.5l64.624,43.798c-24.073,35.859-72.521,45.32-108.212,21.133
						c-3.569-2.419-6.424-4.7-9.573-7.651L1142.782,250.5z"/>
				</g>
			</g>
			<g>
				<g>
					<path fill="#04489B" d="M1142,250.309v-78.486c44,0,78.985,35.14,78.985,78.486c0,16.819-4.618,29.946-13.929,43.89
						L1142,250.309z"/>
				</g>
			</g>
		</g>
		<circle fill="#B7B7B7" cx="1100.881" cy="184.086" r="1.675"/>
		<g>
			<text transform="matrix(1 0 0 1 1135.4648 351.9565)" fill="#8CC9EA" font-family="'Poppins-Medium'" font-size="15">27.5</text>
		</g>
		<text transform="matrix(1 0 0 1 1235.4814 225.209)" fill="#04489B" font-family="'Poppins-Medium'" font-size="15">34.7</text>
		<text transform="matrix(1 0 0 1 1024.7715 274.4878)" font-family="'Poppins-Medium'" font-size="15">20.2</text>
		<text transform="matrix(1 0 0 1 1061.7559 183.7212)" fill="#757575" font-family="'Poppins-Medium'" font-size="15">17.6</text>
		<ellipse fill="#FFFFFF" cx="1142.366" cy="250.349" rx="45.947" ry="46.104"/>
	</g>
	<circle fill="#04489B" cx="1216.087" cy="222.814" r="4.864"/>
	<circle fill="#8CC9EA" cx="1150.087" cy="328.814" r="4.864"/>
	<circle cx="1066.087" cy="266.814" r="4.864"/>
	<circle fill="#757575" cx="1100.087" cy="184.814" r="4.864"/>
</g>
<g>
	<text transform="matrix(1 0 0 1 45.6162 484.6982)" font-family="'Poppins-Bold'" font-size="22">Key Technologies Shaping the Future of Robotics </text>
</g>
<circle fill-rule="evenodd" clip-rule="evenodd" fill="#04489B" cx="344.132" cy="650.005" r="117.777"/>
<circle fill-rule="evenodd" clip-rule="evenodd" fill="#FFFFFF" cx="344.132" cy="650.006" r="83.47"/>
<circle fill-rule="evenodd" clip-rule="evenodd" fill="#04489B" cx="391.8" cy="540.535" r="28.634"/>
<circle fill-rule="evenodd" clip-rule="evenodd" fill="#FFFFFF" cx="391.806" cy="540.655" r="25.771"/>
<circle fill-rule="evenodd" clip-rule="evenodd" fill="#04489B" cx="289.615" cy="543.74" r="28.634"/>
<circle fill-rule="evenodd" clip-rule="evenodd" fill="#FFFFFF" cx="289.79" cy="543.833" r="25.771"/>
<path fill-rule="evenodd" clip-rule="evenodd" fill="#04489B" d="M233.961,597.754c15.555,2.852,25.854,17.773,23,33.328
	c-2.851,15.556-17.773,25.854-33.328,23.001c-15.554-2.853-25.854-17.773-23-33.326
	C203.484,605.199,218.407,594.902,233.961,597.754z"/>
<circle fill-rule="evenodd" clip-rule="evenodd" fill="#FFFFFF" cx="228.853" cy="626.102" r="25.771"/>
<circle fill-rule="evenodd" clip-rule="evenodd" fill="#B7B7B7" cx="255.596" cy="724.58" r="28.635"/>
<circle fill-rule="evenodd" clip-rule="evenodd" fill="#04489B" cx="255.596" cy="724.58" r="28.635"/>
<path fill-rule="evenodd" clip-rule="evenodd" fill="#FFFFFF" d="M238.684,705.299c10.692-9.394,26.975-8.344,36.369,2.347
	c9.396,10.69,8.346,26.975-2.344,36.369c-10.69,9.397-26.975,8.349-36.368-2.343C226.941,730.981,227.993,714.696,238.684,705.299z"
	/>
<circle fill-rule="evenodd" clip-rule="evenodd" fill="#B7B7B7" cx="349.632" cy="764.696" r="28.634"/>
<circle fill-rule="evenodd" clip-rule="evenodd" fill="#04489B" cx="349.632" cy="764.696" r="28.634"/>
<path fill-rule="evenodd" clip-rule="evenodd" fill="#FFFFFF" d="M323.722,766.319c-0.748-14.213,10.168-26.343,24.382-27.087
	c14.212-0.75,26.34,10.166,27.088,24.379c0.747,14.21-10.168,26.343-24.38,27.091C336.598,791.448,324.47,780.532,323.722,766.319z"
	/>
<circle fill-rule="evenodd" clip-rule="evenodd" fill="#B7B7B7" cx="439.396" cy="715.762" r="28.634"/>
<circle fill-rule="evenodd" clip-rule="evenodd" fill="#04489B" cx="439.396" cy="715.762" r="28.634"/>
<path fill-rule="evenodd" clip-rule="evenodd" fill="#FFFFFF" d="M424.592,736.818c-11.618-8.222-14.372-24.303-6.148-35.921
	c8.223-11.618,24.305-14.37,35.923-6.149c11.615,8.223,14.371,24.307,6.148,35.922C452.292,742.29,436.208,745.042,424.592,736.818z
	"/>
<circle fill-rule="evenodd" clip-rule="evenodd" fill="#04489B" cx="456.628" cy="614.989" r="28.634"/>
<circle fill-rule="evenodd" clip-rule="evenodd" fill="#FFFFFF" cx="456.767" cy="614.891" r="25.771"/>
<g>
	<text transform="matrix(1 0 0 1 432.1084 535.248)" font-family="'Poppins-Regular'" font-size="16">AI &amp; Machine Learning</text>
</g>
<g>
	<text transform="matrix(1 0 0 1 476.7593 718.667)"><tspan x="0" y="0" font-family="'Poppins-Regular'" font-size="16">Robotic Process </tspan><tspan x="0" y="18.369" font-family="'Poppins-Regular'" font-size="16">Automation (RPA)</tspan></text>
</g>
<g>
	<text transform="matrix(1 0 0 1 499.7695 618.9424)" font-family="'Poppins-Regular'" font-size="16">Blockchain</text>
</g>
<g>
	<text transform="matrix(1 0 0 1 243.4731 811)" font-family="'Poppins-Regular'" font-size="16">Embedded Vision Systems</text>
</g>
<g>
	<text transform="matrix(1 0 0 1 86.2725 731.3643)"><tspan x="0" y="0" font-family="'Poppins-Regular'" font-size="16">5G &amp; Connected </tspan><tspan x="62.688" y="18.369" font-family="'Poppins-Regular'" font-size="16">Robotics </tspan></text>
</g>
<g>
	<text transform="matrix(1 0 0 1 75.5107 619.7109)"><tspan x="0" y="0" font-family="'Poppins-Regular'" font-size="16">Sensor &amp; Motor</tspan><tspan x="-48.559" y="18.369" font-family="'Poppins-Regular'" font-size="16">Control Technologies</tspan></text>
</g>
<g>
	<text transform="matrix(1 0 0 1 112.5967 535.248)"><tspan x="0" y="0" font-family="'Poppins-Regular'" font-size="16">Cloud Robotics &amp;</tspan><tspan x="-25.888" y="18.369" font-family="'Poppins-Regular'" font-size="16">Robot-as-a-Service</tspan></text>
</g>
<g>
	
		<image overflow="visible" width="102" height="102" xlink:href="866E9AC7.png"  transform="matrix(0.3624 0 0 0.3619 270.5435 522.2832)">
	</image>
</g>
<g>
	<defs>
		<circle id="SVGID_3_" cx="227.98" cy="626.013" r="21.43"/>
	</defs>
	<clipPath id="SVGID_4_">
		<use xlink:href="#SVGID_3_"  overflow="visible"/>
	</clipPath>
	<g clip-path="url(#SVGID_4_)">
		<g>
			<g>
				<path fill-rule="evenodd" clip-rule="evenodd" fill="#FFFFFF" d="M203.604,646.744c0-15.759,0-31.519,0-47.314
					c15.846,0,31.707,0,47.626,0c0,15.747,0,31.531,0,47.314C235.389,646.744,219.504,646.744,203.604,646.744z M233.909,627.922
					c0-1.622,0.036-3.244-0.01-4.864c-0.047-1.651-0.819-2.423-2.49-2.446c-2.779-0.039-5.559-0.042-8.338,0.002
					c-1.648,0.025-2.423,0.82-2.443,2.493c-0.037,3.126-0.006,6.253-0.01,9.38c-0.002,1.62,0.783,2.511,2.415,2.526
					c2.837,0.027,5.674,0.03,8.511-0.002c1.537-0.018,2.343-0.857,2.36-2.399C233.921,631.048,233.907,629.484,233.909,627.922z
					 M208.04,627.109c-0.022,3.743,1.124,6.438,3.441,8.596c0.332,0.309,0.968,0.291,1.463,0.424
					c-0.146-0.479-0.155-1.081-0.459-1.415c-3.991-4.383-3.997-9.47-0.013-13.799c0.312-0.339,0.341-0.938,0.502-1.416
					c-0.533,0.144-1.22,0.124-1.575,0.457C209.186,622.032,208.083,624.632,208.04,627.109z M246.49,627.379
					c-0.026-2.717-1.143-5.378-3.445-7.479c-0.353-0.322-1.046-0.27-1.583-0.39c0.188,0.472,0.257,1.056,0.581,1.399
					c3.958,4.21,3.988,9.525,0.089,13.705c-0.338,0.362-0.359,1.02-0.527,1.54c0.54-0.19,1.221-0.233,1.597-0.595
					C245.396,633.451,246.486,630.837,246.49,627.379z M240.458,627.936c-0.045-2.189-0.847-3.998-2.532-5.331
					c-0.341-0.27-0.975-0.169-1.474-0.239c0.165,0.43,0.22,0.966,0.513,1.273c2.674,2.804,2.675,5.61,0.002,8.342
					c-0.295,0.301-0.349,0.838-0.515,1.265c0.506-0.066,1.146,0.042,1.495-0.228C239.597,631.737,240.349,629.961,240.458,627.936z
					 M227.014,609.774c-0.072-0.153-0.145-0.307-0.217-0.46c-1.73,0.816-3.483,1.589-5.169,2.486
					c-0.32,0.171-0.375,0.839-0.553,1.277c0.497-0.058,1.103,0.05,1.473-0.197c3.369-2.252,5.612-2.243,9.076,0.053
					c0.343,0.228,0.892,0.145,1.346,0.205c-0.135-0.434-0.139-1.011-0.428-1.276C230.992,610.438,229.133,609.736,227.014,609.774z
					 M214.08,627.879c0.123,2.125,0.912,3.938,2.651,5.222c0.309,0.228,0.892,0.082,1.349,0.108
					c-0.125-0.391-0.139-0.884-0.391-1.157c-2.881-3.125-2.877-5.342,0.015-8.545c0.25-0.276,0.259-0.771,0.38-1.165
					c-0.454,0.032-1.041-0.107-1.341,0.124C214.995,623.819,214.145,625.662,214.08,627.879z M227.108,612.49
					c-1.224,0.553-2.379,1.011-3.458,1.607c-0.27,0.15-0.289,0.751-0.423,1.145c0.405,0.024,0.948,0.23,1.193,0.044
					c1.769-1.344,3.468-1.315,5.249-0.028c0.257,0.186,0.782-0.001,1.183-0.016c-0.127-0.391-0.138-0.983-0.403-1.137
					C229.431,613.515,228.33,613.064,227.108,612.49z M229.36,617.371c-1.096-0.737-1.735-1.5-2.349-1.479
					c-0.526,0.017-1.499,1.021-1.422,1.427c0.119,0.618,0.911,1.413,1.532,1.531C227.611,618.943,228.274,618.131,229.36,617.371z"
					/>
				<path fill-rule="evenodd" clip-rule="evenodd" d="M233.908,627.922c-0.001,1.563,0.013,3.126-0.005,4.689
					c-0.018,1.542-0.824,2.382-2.36,2.399c-2.837,0.032-5.674,0.029-8.511,0.002c-1.631-0.016-2.417-0.906-2.415-2.526
					c0.003-3.127-0.027-6.254,0.01-9.38c0.02-1.673,0.795-2.468,2.443-2.493c2.779-0.044,5.559-0.041,8.338-0.002
					c1.671,0.023,2.443,0.795,2.49,2.446C233.945,624.678,233.909,626.3,233.908,627.922z M222.073,627.771
					c0,1.45,0.039,2.901-0.013,4.35c-0.037,1.046,0.371,1.461,1.424,1.443c2.494-0.041,4.989-0.053,7.482,0.005
					c1.164,0.027,1.516-0.463,1.499-1.555c-0.044-2.842-0.043-5.685-0.008-8.527c0.013-1.032-0.366-1.475-1.423-1.458
					c-2.494,0.038-4.989,0.05-7.483-0.004c-1.167-0.025-1.529,0.486-1.491,1.569C222.11,624.985,222.073,626.379,222.073,627.771z"
					/>
				<path fill-rule="evenodd" clip-rule="evenodd" d="M208.04,627.109c0.044-2.478,1.146-5.077,3.359-7.153
					c0.355-0.333,1.042-0.313,1.575-0.457c-0.161,0.479-0.19,1.077-0.502,1.416c-3.984,4.329-3.979,9.416,0.013,13.799
					c0.304,0.334,0.313,0.937,0.459,1.415c-0.495-0.133-1.131-0.115-1.463-0.424C209.164,633.548,208.018,630.853,208.04,627.109z"
					/>
				<path fill-rule="evenodd" clip-rule="evenodd" d="M246.49,627.379c-0.004,3.458-1.095,6.072-3.289,8.182
					c-0.375,0.361-1.057,0.404-1.597,0.595c0.168-0.521,0.189-1.178,0.527-1.54c3.899-4.18,3.869-9.495-0.089-13.705
					c-0.324-0.344-0.393-0.928-0.581-1.399c0.536,0.12,1.229,0.067,1.583,0.39C245.348,622.001,246.464,624.662,246.49,627.379z"/>
				<path fill-rule="evenodd" clip-rule="evenodd" d="M240.458,627.936c-0.109,2.025-0.861,3.802-2.512,5.082
					c-0.348,0.27-0.989,0.161-1.495,0.228c0.166-0.427,0.22-0.964,0.515-1.265c2.673-2.731,2.672-5.538-0.002-8.342
					c-0.293-0.308-0.348-0.844-0.513-1.273c0.499,0.07,1.133-0.03,1.474,0.239C239.611,623.938,240.414,625.746,240.458,627.936z"/>
				<path fill-rule="evenodd" clip-rule="evenodd" d="M227.014,609.774c2.12-0.038,3.979,0.663,5.526,2.088
					c0.289,0.266,0.293,0.843,0.428,1.276c-0.454-0.061-1.002,0.022-1.346-0.205c-3.464-2.296-5.707-2.305-9.076-0.053
					c-0.37,0.247-0.976,0.14-1.473,0.197c0.178-0.438,0.233-1.106,0.553-1.277c1.687-0.897,3.439-1.67,5.169-2.486
					C226.869,609.468,226.941,609.621,227.014,609.774z"/>
				<path fill-rule="evenodd" clip-rule="evenodd" d="M214.08,627.879c0.065-2.217,0.915-4.06,2.663-5.413
					c0.3-0.231,0.887-0.092,1.341-0.124c-0.121,0.394-0.13,0.889-0.38,1.165c-2.892,3.203-2.896,5.42-0.015,8.545
					c0.252,0.273,0.266,0.767,0.391,1.157c-0.457-0.026-1.04,0.119-1.349-0.108C214.992,631.817,214.203,630.004,214.08,627.879z"/>
				<path fill-rule="evenodd" clip-rule="evenodd" d="M227.108,612.49c1.222,0.574,2.323,1.024,3.342,1.615
					c0.265,0.153,0.275,0.746,0.403,1.137c-0.401,0.015-0.926,0.201-1.183,0.016c-1.781-1.287-3.48-1.315-5.249,0.028
					c-0.246,0.187-0.789-0.02-1.193-0.044c0.134-0.394,0.153-0.994,0.423-1.145C224.729,613.501,225.884,613.043,227.108,612.49z"/>
				<path fill-rule="evenodd" clip-rule="evenodd" d="M229.36,617.371c-1.086,0.76-1.749,1.572-2.239,1.479
					c-0.621-0.118-1.413-0.913-1.532-1.531c-0.077-0.405,0.896-1.41,1.422-1.427C227.625,615.871,228.265,616.634,229.36,617.371z"
					/>
				<path fill-rule="evenodd" clip-rule="evenodd" fill="#FFFFFF" d="M222.073,627.771c0-1.393,0.037-2.786-0.013-4.177
					c-0.039-1.083,0.323-1.595,1.491-1.569c2.494,0.054,4.989,0.042,7.483,0.004c1.057-0.017,1.436,0.426,1.423,1.458
					c-0.035,2.843-0.036,5.686,0.008,8.527c0.017,1.092-0.335,1.582-1.499,1.555c-2.493-0.058-4.989-0.046-7.482-0.005
					c-1.053,0.018-1.461-0.397-1.424-1.443C222.112,630.673,222.073,629.222,222.073,627.771z M223.198,627.803
					c0.004,0,0.007,0,0.011,0c0,0.693-0.052,1.393,0.011,2.08c0.152,1.661,0.969,2.256,3.032,2.28
					c3.974,0.049,4.87-0.297,5.031-2.17c0.123-1.435,0.109-2.894,0.004-4.33c-0.12-1.638-1.216-2.349-2.752-2.179
					c-1.891,0.209-4.364-1.052-5.273,1.896c-0.083,0.268-0.056,0.573-0.061,0.861C223.192,626.763,223.198,627.282,223.198,627.803z
					"/>
				<path fill-rule="evenodd" clip-rule="evenodd" d="M223.198,627.803c0-0.521-0.006-1.04,0.002-1.561
					c0.005-0.288-0.021-0.594,0.061-0.861c0.909-2.948,3.382-1.688,5.273-1.896c1.536-0.17,2.633,0.541,2.752,2.179
					c0.105,1.437,0.119,2.896-0.004,4.33c-0.161,1.873-1.057,2.219-5.031,2.17c-2.063-0.024-2.88-0.619-3.032-2.28
					c-0.063-0.688-0.011-1.387-0.011-2.08C223.206,627.803,223.202,627.803,223.198,627.803z M229.806,627.792
					c0.052-0.009,0.104-0.018,0.156-0.025c-0.169-0.88-0.154-2.409-0.541-2.52c-1.278-0.361-2.725-0.36-4.05-0.148
					c-0.327,0.052-0.623,1.434-0.622,2.204c0,3.764-0.689,3.353,3.57,3.416c1.147,0.017,1.583-0.441,1.493-1.541
					C229.774,628.719,229.806,628.254,229.806,627.792z"/>
				<path fill-rule="evenodd" clip-rule="evenodd" fill="#FFFFFF" d="M229.806,627.792c0,0.462-0.032,0.927,0.006,1.386
					c0.091,1.1-0.345,1.558-1.493,1.541c-4.259-0.063-3.569,0.348-3.57-3.416c0-0.771,0.295-2.152,0.622-2.204
					c1.326-0.212,2.772-0.213,4.05,0.148c0.387,0.11,0.372,1.64,0.541,2.52C229.91,627.774,229.857,627.783,229.806,627.792z"/>
			</g>
		</g>
	</g>
</g>
<g>
	<g>
		<path fill-rule="evenodd" clip-rule="evenodd" d="M247.987,743.47c-0.007-1.559-0.045-3.117-0.015-4.675
			c0.045-2.249,1.785-3.978,4.025-4.022c1.431-0.028,2.864-0.008,4.295-0.008c0.964,0.001,1.931-0.034,2.893,0.015
			c2.028,0.105,3.728,1.84,3.786,3.898c0.044,1.597-0.003,3.195-0.01,4.792C257.97,743.47,252.978,743.47,247.987,743.47z
			 M257.133,737.18c0.573-0.025,0.966,0.001,1.339-0.074c0.226-0.047,0.576-0.23,0.598-0.391c0.059-0.423-0.332-0.449-0.644-0.463
			c-0.388-0.017-0.779-0.028-1.167,0c-0.757,0.054-1.036,0.32-1.064,1.096c-0.034,0.932-0.003,1.867-0.01,2.801
			c-0.004,0.563,0.274,0.901,0.821,0.933c0.737,0.041,1.478,0.042,2.215,0.014c0.537-0.022,0.85-0.354,0.905-0.891
			c0.028-0.271,0.019-0.545,0.016-0.817c-0.005-0.394,0.009-0.847-0.456-0.971c-0.452-0.119-0.978-0.29-1.412,0.327
			c0.277,0.198,0.537,0.348,0.749,0.546c0.346,0.323,0.248,0.839-0.189,0.886c-0.591,0.062-1.228,0.23-1.7-0.133
			C257.133,739.065,257.133,738.188,257.133,737.18z M251.403,741.058c0.662,0.017,1.344,0.075,2.022,0.042
			c0.821-0.038,1.307-0.562,1.331-1.329c0.024-0.824-0.478-1.37-1.349-1.438c-0.388-0.029-0.779-0.008-1.167-0.031
			c-0.376-0.027-0.601-0.271-0.505-0.623c0.057-0.206,0.3-0.469,0.496-0.503c0.455-0.085,0.938-0.003,1.395-0.078
			c0.208-0.034,0.379-0.285,0.568-0.439c-0.168-0.132-0.329-0.364-0.505-0.377c-0.659-0.046-1.325-0.049-1.984-0.016
			c-0.542,0.029-0.839,0.375-0.886,0.912c-0.023,0.271-0.023,0.545-0.011,0.817c0.038,0.824,0.294,1.113,1.114,1.198
			c0.425,0.044,0.857,0.01,1.285,0.03c0.337,0.015,0.677,0.133,0.585,0.53c-0.042,0.188-0.345,0.402-0.56,0.442
			c-0.416,0.076-0.854,0.022-1.282,0.049C251.549,740.268,251.279,740.432,251.403,741.058z"/>
		<path fill-rule="evenodd" clip-rule="evenodd" d="M256.644,705.563c0.472,0.163,0.948,0.312,1.413,0.489
			c0.289,0.11,0.571,0.246,0.836,0.402c0.35,0.207,0.44,0.543,0.299,0.906c-0.155,0.397-0.485,0.471-0.865,0.362
			c-0.63-0.179-1.257-0.37-1.885-0.557c-1.104-0.324-2.138,0.023-3.172,0.338c-0.185,0.056-0.352,0.162-0.53,0.24
			c-0.399,0.176-0.678-0.007-0.885-0.327c-0.239-0.369-0.087-0.698,0.221-0.911c0.314-0.214,0.674-0.376,1.034-0.511
			c0.466-0.171,0.951-0.29,1.427-0.433C255.24,705.563,255.942,705.563,256.644,705.563z"/>
		<path fill-rule="evenodd" clip-rule="evenodd" d="M244.711,743.47c-0.549-0.566-0.587-1.223-0.366-2.034
			c0.846,0.375,1.668,0.683,2.42,1.112c0.204,0.116,0.196,0.604,0.286,0.922C246.271,743.47,245.491,743.47,244.711,743.47z"/>
		<path fill-rule="evenodd" clip-rule="evenodd" d="M263.897,743.47c-0.092-0.576,0.09-0.95,0.688-1.157
			c0.65-0.227,1.265-0.552,1.959-0.864c0.348,0.762,0.227,1.418-0.308,2.021C265.458,743.47,264.678,743.47,263.897,743.47z"/>
		<path fill-rule="evenodd" clip-rule="evenodd" d="M253.371,713.759c0.222-0.271,0.422-0.562,0.669-0.807
			c0.866-0.857,2.075-0.837,2.906,0.031c0.797,0.831,0.761,1.937-0.098,2.802c-0.137,0.138-0.32,0.232-0.445,0.377
			c-0.324,0.38-0.194,0.759,0.292,0.834c0.268,0.041,0.543,0.024,0.816,0.024c1.87,0.002,3.742,0.062,5.607-0.021
			c1.373-0.06,2.454,1.042,2.3,2.522c-0.207,1.992-0.032,4.022-0.02,6.037c0.003,0.501,0.016,1.002,0.016,1.503
			c0.001,1.123,0.048,2.248-0.018,3.367c-0.104,1.749-0.49,2.076-2.232,2.08c-1.008,0.003-2.017,0.001-3.055,0.001
			c-0.19,0.449-0.353,0.834-0.525,1.241c-0.149,0.039-0.297,0.11-0.444,0.11c-2.337,0.011-4.675-0.022-7.011,0.031
			c-0.938,0.023-1.072-0.577-1.177-1.382c-1.22,0-2.378,0.018-3.535-0.006c-1.053-0.021-1.579-0.432-1.872-1.429
			c-0.074-0.252-0.064-0.531-0.063-0.799c0.002-1.084,0.006-2.169,0.027-3.252c0.015-0.736,0.079-1.472,0.084-2.208
			c0.014-1.781,0.037-3.563-0.009-5.343c-0.024-0.864,0.134-1.612,0.765-2.227c0.653-0.077,1.305-0.208,1.959-0.22
			c1.869-0.029,3.738,0.004,5.607-0.025c0.263-0.002,0.523-0.207,0.786-0.319c-0.115-0.226-0.172-0.523-0.353-0.664
			C253.599,715.437,253.354,714.66,253.371,713.759z M255.47,726.162c-1.048,0-2.099-0.035-3.144,0.018
			c-0.398,0.02-0.903,0.132-1.156,0.396c-0.598,0.625-0.461,1.471-0.258,2.206c0.185,0.667,0.784,0.885,1.479,0.877
			c2.058-0.02,4.116,0.01,6.174-0.013c1.189-0.015,1.589-0.497,1.583-1.788c-0.006-1.255-0.358-1.663-1.533-1.69
			C257.567,726.144,256.518,726.162,255.47,726.162z M253.278,722.092c-0.009-1.493-0.745-2.253-2.162-2.235
			c-1.314,0.017-2.179,0.98-2.187,2.359c-0.007,1.244,0.954,2.174,2.241,2.214C252.497,724.471,253.287,723.539,253.278,722.092z
			 M257.578,722.118c0.012,1.339,0.942,2.404,2.098,2.307c1.587-0.135,2.372-0.978,2.337-2.351c-0.032-1.3-0.929-2.21-2.204-2.219
			C258.422,719.847,257.566,720.713,257.578,722.118z"/>
		<path fill-rule="evenodd" clip-rule="evenodd" fill="#FFFFFF" d="M253.371,713.759c-0.017,0.901,0.228,1.678,0.978,2.262
			c0.18,0.141,0.238,0.438,0.353,0.664c-0.263,0.112-0.523,0.317-0.786,0.319c-1.869,0.029-3.738-0.004-5.607,0.025
			c-0.654,0.012-1.306,0.143-1.959,0.22c1.557-1.893,3.346-3.552,5.065-5.292C252.144,712.629,252.758,713.192,253.371,713.759z"/>
		<path fill-rule="evenodd" clip-rule="evenodd" d="M246.996,741.555c-1.635-0.409-2.623-1.277-2.993-2.77
			c-0.366-1.47,0.115-2.732,1.263-3.621c1.032-0.797,2.239-1.248,3.711-0.398c-0.851,0.914-1.617,1.859-1.769,3.062
			C247.059,739.008,247.065,740.205,246.996,741.555z"/>
		<path fill-rule="evenodd" clip-rule="evenodd" d="M262.088,734.691c1.363-0.77,2.566-0.32,3.601,0.478
			c1.111,0.858,1.595,2.09,1.282,3.511c-0.341,1.549-1.337,2.459-3.048,2.876c-0.018-0.576-0.076-1.063-0.041-1.543
			c0.139-1.909-0.27-3.62-1.714-4.982C262.122,734.988,262.13,734.887,262.088,734.691z"/>
		<path fill-rule="evenodd" clip-rule="evenodd" fill="#FFFFFF" d="M268.319,732.854c-0.752-0.788-1.374-1.439-1.986-2.08
			c0.665-0.716,1.263-1.358,1.861-2c0.61,0.692,1.162,1.321,1.874,2.132C269.944,731.568,269.053,731.991,268.319,732.854z"/>
		<path fill-rule="evenodd" clip-rule="evenodd" d="M244.628,721.686c0,1.899,0,3.632,0,5.46c-1.129-0.516-1.562-1.447-1.714-2.543
			C242.768,723.552,243.362,722.51,244.628,721.686z"/>
		<path fill-rule="evenodd" clip-rule="evenodd" d="M266.447,727.055c-0.302-1.083-0.278-4.404,0.01-5.218
			C268.549,722.918,268.585,725.611,266.447,727.055z"/>
		<path fill-rule="evenodd" clip-rule="evenodd" d="M255.627,707.748c0.597,0.146,1.242,0.261,1.853,0.474
			c0.324,0.115,0.592,0.405,0.448,0.832c-0.154,0.452-0.513,0.593-0.932,0.475c-1-0.283-1.985-0.294-2.986-0.008
			c-0.377,0.11-0.712-0.038-0.845-0.426c-0.15-0.437,0.031-0.803,0.46-0.925C254.253,707.991,254.904,707.896,255.627,707.748z"/>
		<path fill-rule="evenodd" clip-rule="evenodd" d="M255.463,711.411c-0.365-0.025-0.663-0.221-0.684-0.696
			c-0.018-0.412,0.325-0.738,0.742-0.705c0.467,0.037,0.683,0.321,0.678,0.775C256.194,711.21,255.964,711.418,255.463,711.411z"/>
		<path fill-rule="evenodd" clip-rule="evenodd" fill="#FFFFFF" d="M257.133,737.18c0,1.009,0,1.886,0,2.862
			c0.473,0.363,1.109,0.194,1.7,0.133c0.437-0.047,0.535-0.563,0.189-0.886c-0.212-0.198-0.472-0.348-0.749-0.546
			c0.435-0.617,0.96-0.446,1.412-0.327c0.465,0.124,0.451,0.577,0.456,0.971c0.003,0.272,0.012,0.546-0.016,0.817
			c-0.055,0.537-0.368,0.868-0.905,0.891c-0.737,0.028-1.478,0.027-2.215-0.014c-0.547-0.031-0.826-0.37-0.821-0.933
			c0.007-0.934-0.024-1.869,0.01-2.801c0.029-0.775,0.308-1.042,1.064-1.096c0.387-0.028,0.778-0.017,1.167,0
			c0.312,0.014,0.703,0.04,0.644,0.463c-0.022,0.16-0.372,0.344-0.598,0.391C258.1,737.181,257.706,737.154,257.133,737.18z"/>
		<path fill-rule="evenodd" clip-rule="evenodd" fill="#FFFFFF" d="M251.403,741.058c-0.124-0.626,0.146-0.79,0.546-0.813
			c0.428-0.026,0.866,0.027,1.282-0.049c0.215-0.04,0.518-0.255,0.56-0.442c0.092-0.397-0.248-0.516-0.585-0.53
			c-0.428-0.021-0.86,0.014-1.285-0.03c-0.82-0.085-1.077-0.374-1.114-1.198c-0.013-0.272-0.013-0.547,0.011-0.817
			c0.047-0.537,0.344-0.883,0.886-0.912c0.66-0.033,1.325-0.03,1.984,0.016c0.177,0.013,0.337,0.245,0.505,0.377
			c-0.188,0.154-0.36,0.405-0.568,0.439c-0.457,0.075-0.94-0.007-1.395,0.078c-0.196,0.034-0.439,0.297-0.496,0.503
			c-0.096,0.353,0.128,0.596,0.505,0.623c0.389,0.023,0.78,0.002,1.167,0.031c0.871,0.068,1.373,0.614,1.349,1.438
			c-0.024,0.768-0.51,1.291-1.331,1.329C252.747,741.133,252.065,741.074,251.403,741.058z"/>
		<path fill-rule="evenodd" clip-rule="evenodd" fill="#FFFFFF" d="M255.47,726.162c1.048,0,2.098-0.019,3.145,0.006
			c1.175,0.027,1.527,0.436,1.533,1.69c0.006,1.291-0.394,1.773-1.583,1.788c-2.058,0.022-4.116-0.007-6.174,0.013
			c-0.696,0.008-1.294-0.21-1.479-0.877c-0.203-0.735-0.34-1.581,0.258-2.206c0.253-0.265,0.757-0.377,1.156-0.396
			C253.371,726.127,254.421,726.162,255.47,726.162z M253.737,727.063c-0.28,1.271-0.197,1.6,0.392,1.686
			c0.602,0.085,0.859-0.123,0.896-0.729C255.078,727.173,254.934,727.062,253.737,727.063z M257.474,727.224
			c-0.708-0.167-1.233-0.384-1.454,0.176c-0.135,0.337-0.053,0.851,0.125,1.183c0.084,0.156,0.834,0.201,0.91,0.075
			C257.283,728.273,257.329,727.782,257.474,727.224z M252.851,727.971c-0.243-0.357-0.375-0.778-0.599-0.835
			c-0.456-0.116-0.555,0.299-0.553,0.674c0.004,0.378-0.069,0.881,0.483,0.867C252.388,728.671,252.584,728.267,252.851,727.971z
			 M258.098,727.91c0.255,0.323,0.414,0.729,0.638,0.769c0.464,0.082,0.522-0.351,0.517-0.716c-0.004-0.385,0.027-0.882-0.524-0.825
			C258.519,727.158,258.351,727.583,258.098,727.91z"/>
		<path fill-rule="evenodd" clip-rule="evenodd" fill="#FFFFFF" d="M253.278,722.092c0.009,1.447-0.781,2.379-2.108,2.338
			c-1.287-0.04-2.248-0.97-2.241-2.214c0.008-1.379,0.873-2.343,2.187-2.359C252.533,719.839,253.269,720.599,253.278,722.092z
			 M249.827,722.082c-0.038,0.759,0.607,1.47,1.331,1.464c0.653-0.003,1.433-0.765,1.463-1.428c0.029-0.644-0.61-1.296-1.333-1.361
			C250.551,720.692,249.865,721.313,249.827,722.082z"/>
		<path fill-rule="evenodd" clip-rule="evenodd" fill="#FFFFFF" d="M257.578,722.118c-0.012-1.405,0.844-2.271,2.232-2.263
			c1.275,0.009,2.172,0.919,2.204,2.219c0.035,1.373-0.75,2.216-2.337,2.351C258.521,724.522,257.59,723.457,257.578,722.118z
			 M261.119,722.171c0.013-0.841-0.545-1.428-1.348-1.419c-0.724,0.01-1.41,0.607-1.446,1.263c-0.038,0.688,0.787,1.542,1.482,1.532
			C260.484,723.537,261.108,722.883,261.119,722.171z"/>
		<path fill-rule="evenodd" clip-rule="evenodd" d="M253.737,727.063c1.197-0.002,1.34,0.109,1.288,0.957
			c-0.037,0.605-0.294,0.813-0.896,0.729C253.541,728.663,253.458,728.335,253.737,727.063z"/>
		<path fill-rule="evenodd" clip-rule="evenodd" d="M257.474,727.224c-0.146,0.559-0.191,1.05-0.419,1.434
			c-0.075,0.126-0.825,0.081-0.91-0.075c-0.178-0.332-0.261-0.846-0.125-1.183C256.241,726.84,256.766,727.057,257.474,727.224z"/>
		<path fill-rule="evenodd" clip-rule="evenodd" d="M252.851,727.971c-0.267,0.296-0.462,0.7-0.668,0.706
			c-0.552,0.014-0.479-0.489-0.483-0.867c-0.002-0.375,0.097-0.79,0.553-0.674C252.476,727.192,252.608,727.613,252.851,727.971z"/>
		<path fill-rule="evenodd" clip-rule="evenodd" d="M258.098,727.91c0.253-0.327,0.421-0.752,0.631-0.772
			c0.551-0.057,0.52,0.44,0.524,0.825c0.005,0.365-0.053,0.798-0.517,0.716C258.512,728.64,258.353,728.233,258.098,727.91z"/>
		<path fill-rule="evenodd" clip-rule="evenodd" d="M249.827,722.082c0.038-0.77,0.724-1.39,1.461-1.325
			c0.723,0.065,1.362,0.718,1.333,1.361c-0.03,0.663-0.811,1.425-1.463,1.428C250.434,723.552,249.789,722.841,249.827,722.082z"/>
		<path fill-rule="evenodd" clip-rule="evenodd" d="M261.119,722.171c-0.011,0.712-0.635,1.366-1.312,1.376
			c-0.696,0.01-1.521-0.845-1.482-1.532c0.036-0.655,0.722-1.253,1.446-1.263C260.574,720.743,261.131,721.33,261.119,722.171z"/>
	</g>
</g>
<g>
	
		<image overflow="visible" width="139" height="139" xlink:href="866E9ACA.png"  transform="matrix(0.2267 0 0 0.2264 334.8608 750.1074)">
	</image>
</g>
<g>
	
		<image overflow="visible" width="100" height="113" xlink:href="866E9ACB.png"  transform="matrix(0.3475 0 0 0.347 440.7471 596.0967)">
	</image>
</g>
<g>
	<defs>
		<circle id="SVGID_5_" cx="391.229" cy="539.525" r="21.746"/>
	</defs>
	<clipPath id="SVGID_6_">
		<use xlink:href="#SVGID_5_"  overflow="visible"/>
	</clipPath>
	<g clip-path="url(#SVGID_6_)">
		
			<image overflow="visible" width="111" height="111" xlink:href="866E9ACD.png"  transform="matrix(0.4198 0 0 0.4192 369.2681 517.1055)">
		</image>
	</g>
</g>
<g>
	<defs>
		<circle id="SVGID_7_" cx="440.761" cy="716.027" r="23.231"/>
	</defs>
	<clipPath id="SVGID_8_">
		<use xlink:href="#SVGID_7_"  overflow="visible"/>
	</clipPath>
	<g clip-path="url(#SVGID_8_)">
		
			<image overflow="visible" width="580" height="386" xlink:href="6DFC5D56.jpg"  transform="matrix(0.1207 0 0 0.1207 404.3755 693.3994)">
		</image>
	</g>
</g>
<g>
	<defs>
		<rect id="SVGID_9_" x="294" y="585" width="96" height="131"/>
	</defs>
	<clipPath id="SVGID_10_">
		<use xlink:href="#SVGID_9_"  overflow="visible"/>
	</clipPath>
	<g clip-path="url(#SVGID_10_)">
		
			<image overflow="visible" width="512" height="512" xlink:href="6DFC5D51.jpg"  transform="matrix(0.2638 0 0 0.2638 278.3145 580.4502)">
		</image>
	</g>
</g>
<g>
	<line fill="none" stroke="#04489B" stroke-width="3" stroke-miterlimit="10" x1="991.094" y1="553" x2="989.094" y2="788"/>
	<g>
		<text transform="matrix(1 0 0 1 806.6113 484.6982)" font-family="'Poppins-Bold'" font-size="22">Trending Market Themes for 2023</text>
	</g>
	<g>
		<g>
			<g>
				<line fill="none" stroke="#04489B" stroke-width="3" stroke-miterlimit="10" x1="975" y1="575.5" x2="1003" y2="575.5"/>
				<g>
					<polygon fill="#04489B" points="976,571.069 976,580.181 971.445,575.625 					"/>
				</g>
				<g>
					<polygon fill="#04489B" points="1002,579.364 1008.477,575.625 1002,571.886 					"/>
				</g>
			</g>
		</g>
		
			<circle fill-rule="evenodd" clip-rule="evenodd" fill="#FFFFFF" stroke="#04489B" stroke-width="3" stroke-miterlimit="10" cx="989.621" cy="574.464" r="5.963"/>
	</g>
	<g>
		<g>
			<g>
				<line fill="none" stroke="#04489B" stroke-width="3" stroke-miterlimit="10" x1="975" y1="624.5" x2="1003" y2="624.5"/>
				<g>
					<polygon fill="#04489B" points="976,620.069 976,629.181 971.445,624.625 					"/>
				</g>
				<g>
					<polygon fill="#04489B" points="1002,628.364 1008.477,624.625 1002,620.886 					"/>
				</g>
			</g>
		</g>
		
			<circle fill-rule="evenodd" clip-rule="evenodd" fill="#FFFFFF" stroke="#04489B" stroke-width="3" stroke-miterlimit="10" cx="989.621" cy="624.464" r="5.963"/>
	</g>
	<g>
		<g>
			<g>
				<line fill="none" stroke="#04489B" stroke-width="3" stroke-miterlimit="10" x1="975" y1="682.5" x2="1003" y2="682.5"/>
				<g>
					<polygon fill="#04489B" points="976,678.069 976,687.181 971.445,682.625 					"/>
				</g>
				<g>
					<polygon fill="#04489B" points="1002,686.364 1008.477,682.625 1002,678.886 					"/>
				</g>
			</g>
		</g>
		
			<circle fill-rule="evenodd" clip-rule="evenodd" fill="#FFFFFF" stroke="#04489B" stroke-width="3" stroke-miterlimit="10" cx="989.621" cy="682.464" r="5.963"/>
	</g>
	<g>
		<g>
			<g>
				<line fill="none" stroke="#04489B" stroke-width="3" stroke-miterlimit="10" x1="975" y1="737.5" x2="1003" y2="737.5"/>
				<g>
					<polygon fill="#04489B" points="976,733.069 976,742.181 971.445,737.625 					"/>
				</g>
				<g>
					<polygon fill="#04489B" points="1002,741.364 1008.477,737.625 1002,733.886 					"/>
				</g>
			</g>
		</g>
		
			<circle fill-rule="evenodd" clip-rule="evenodd" fill="#FFFFFF" stroke="#04489B" stroke-width="3" stroke-miterlimit="10" cx="989.621" cy="737.464" r="5.963"/>
	</g>
	<g>
		<g>
			<g>
				<line fill="none" stroke="#04489B" stroke-width="3" stroke-miterlimit="10" x1="975" y1="787.5" x2="1003" y2="787.5"/>
				<g>
					<polygon fill="#04489B" points="976,783.069 976,792.181 971.445,787.625 					"/>
				</g>
				<g>
					<polygon fill="#04489B" points="1002,791.364 1008.477,787.625 1002,783.886 					"/>
				</g>
			</g>
		</g>
		
			<circle fill-rule="evenodd" clip-rule="evenodd" fill="#FFFFFF" stroke="#04489B" stroke-width="3" stroke-miterlimit="10" cx="989.621" cy="787.464" r="5.963"/>
	</g>
	<g>
		<text transform="matrix(1 0 0 1 745.833 571.5)"><tspan x="0" y="0" font-family="'Poppins-Regular'" font-size="16">e-Commerce Fuels Boom</tspan><tspan x="36.384" y="18.369" font-family="'Poppins-Regular'" font-size="16">in Warehouse Robots</tspan></text>
	</g>
	<g>
		<text transform="matrix(1 0 0 1 1026.0938 571.5)"><tspan x="0" y="0" font-family="'Poppins-Regular'" font-size="16">Robots Will Become Standard </tspan><tspan x="0" y="18.369" font-family="'Poppins-Regular'" font-size="16">AutomationOptions</tspan></text>
	</g>
	<g>
		<text transform="matrix(1 0 0 1 1026.0938 676.834)"><tspan x="0" y="0" font-family="'Poppins-Regular'" font-size="16">Smarter, Customized Robots</tspan><tspan x="0" y="18.369" font-family="'Poppins-Regular'" font-size="16">Will Be the New Flavor</tspan></text>
	</g>
	<g>
		<text transform="matrix(1 0 0 1 1026.0938 627.5)" font-family="'Poppins-Regular'" font-size="16">Cobots to Rise in Popularity</text>
	</g>
	<g>
		<text transform="matrix(1 0 0 1 793.1602 676.834)"><tspan x="0" y="0" font-family="'Poppins-Regular'" font-size="16">Humanoid Robots &amp;</tspan><tspan x="42.255" y="18.369" font-family="'Poppins-Regular'" font-size="16">Cyber Security</tspan></text>
	</g>
	<g>
		<g>
			<linearGradient id="SVGID_11_" gradientUnits="userSpaceOnUse" x1="769.0732" y1="627.668" x2="949.71" y2="627.668">
				<stop  offset="0" style="stop-color:#FFFFFF"/>
				<stop  offset="1" style="stop-color:#000000"/>
			</linearGradient>
			<path fill="url(#SVGID_11_)" d="M774.865,624.5l-2.912-4.576h-1.424v4.576h-1.456v-11.088h3.6c0.832,0,1.536,0.142,2.112,0.424
				c0.576,0.283,1.008,0.672,1.296,1.168s0.432,1.054,0.432,1.672c0,0.8-0.239,1.494-0.72,2.08c-0.479,0.587-1.2,0.955-2.16,1.104
				l3.057,4.64H774.865z M770.529,618.772h2.144c0.8,0,1.395-0.185,1.784-0.553s0.584-0.882,0.584-1.544
				c0-0.661-0.192-1.176-0.576-1.544s-0.981-0.552-1.792-0.552h-2.144V618.772z"/>
			<linearGradient id="SVGID_12_" gradientUnits="userSpaceOnUse" x1="769.0732" y1="627.668" x2="949.71" y2="627.668">
				<stop  offset="0" style="stop-color:#FFFFFF"/>
				<stop  offset="1" style="stop-color:#000000"/>
			</linearGradient>
			<path fill="url(#SVGID_12_)" d="M785.057,616.132c0.673,0.374,1.203,0.907,1.593,1.601c0.389,0.693,0.584,1.487,0.584,2.384
				c0,0.886-0.203,1.672-0.608,2.359c-0.405,0.688-0.955,1.222-1.647,1.601c-0.694,0.379-1.462,0.567-2.305,0.567
				c-0.821,0-1.56-0.187-2.216-0.56s-1.168-0.904-1.536-1.592c-0.368-0.688-0.552-1.48-0.552-2.376c0-0.906,0.194-1.704,0.584-2.393
				c0.39-0.688,0.92-1.218,1.592-1.592c0.672-0.373,1.424-0.56,2.256-0.56S784.385,615.759,785.057,616.132z M781.297,617.156
				c-0.438,0.256-0.786,0.635-1.048,1.136c-0.262,0.502-0.392,1.109-0.392,1.824c0,0.704,0.125,1.307,0.376,1.808
				c0.25,0.502,0.589,0.88,1.016,1.136c0.427,0.257,0.901,0.385,1.424,0.385c0.533,0,1.032-0.131,1.496-0.393
				c0.464-0.261,0.84-0.643,1.128-1.144s0.433-1.099,0.433-1.792c0-0.704-0.137-1.31-0.408-1.816
				c-0.272-0.506-0.635-0.888-1.088-1.144c-0.454-0.256-0.947-0.384-1.48-0.384S781.734,616.9,781.297,617.156z"/>
			<linearGradient id="SVGID_13_" gradientUnits="userSpaceOnUse" x1="769.0732" y1="627.668" x2="949.71" y2="627.668">
				<stop  offset="0" style="stop-color:#FFFFFF"/>
				<stop  offset="1" style="stop-color:#000000"/>
			</linearGradient>
			<path fill="url(#SVGID_13_)" d="M795.896,616.132c0.635,0.374,1.136,0.898,1.504,1.576s0.552,1.459,0.552,2.344
				c0,0.886-0.184,1.678-0.552,2.376c-0.368,0.699-0.869,1.243-1.504,1.632c-0.635,0.39-1.347,0.584-2.136,0.584
				c-0.747,0-1.4-0.178-1.96-0.535c-0.561-0.357-0.99-0.824-1.288-1.4v1.792h-1.456v-11.84h1.456v4.815
				c0.298-0.564,0.728-1.023,1.288-1.376c0.56-0.352,1.213-0.527,1.96-0.527C794.55,615.572,795.262,615.759,795.896,616.132z
				 M792.009,617.236c-0.454,0.267-0.816,0.647-1.088,1.144c-0.272,0.496-0.408,1.075-0.408,1.736s0.136,1.24,0.408,1.735
				c0.271,0.496,0.634,0.878,1.088,1.145c0.453,0.267,0.94,0.4,1.464,0.4c0.522,0,1.013-0.137,1.472-0.408
				c0.459-0.272,0.824-0.664,1.096-1.177c0.272-0.512,0.408-1.098,0.408-1.76c0-0.661-0.136-1.234-0.408-1.72
				c-0.271-0.485-0.635-0.856-1.088-1.112s-0.946-0.384-1.479-0.384C792.949,616.836,792.462,616.97,792.009,617.236z"/>
			<linearGradient id="SVGID_14_" gradientUnits="userSpaceOnUse" x1="769.0732" y1="627.668" x2="949.71" y2="627.668">
				<stop  offset="0" style="stop-color:#FFFFFF"/>
				<stop  offset="1" style="stop-color:#000000"/>
			</linearGradient>
			<path fill="url(#SVGID_14_)" d="M805.888,616.132c0.673,0.374,1.203,0.907,1.593,1.601c0.389,0.693,0.584,1.487,0.584,2.384
				c0,0.886-0.203,1.672-0.608,2.359c-0.405,0.688-0.955,1.222-1.647,1.601c-0.694,0.379-1.462,0.567-2.305,0.567
				c-0.821,0-1.56-0.187-2.216-0.56s-1.168-0.904-1.536-1.592c-0.368-0.688-0.552-1.48-0.552-2.376c0-0.906,0.194-1.704,0.584-2.393
				c0.39-0.688,0.92-1.218,1.592-1.592c0.672-0.373,1.424-0.56,2.256-0.56S805.216,615.759,805.888,616.132z M802.128,617.156
				c-0.438,0.256-0.786,0.635-1.048,1.136c-0.262,0.502-0.392,1.109-0.392,1.824c0,0.704,0.125,1.307,0.376,1.808
				c0.25,0.502,0.589,0.88,1.016,1.136c0.427,0.257,0.901,0.385,1.424,0.385c0.533,0,1.032-0.131,1.496-0.393
				c0.464-0.261,0.84-0.643,1.128-1.144s0.433-1.099,0.433-1.792c0-0.704-0.137-1.31-0.408-1.816
				c-0.272-0.506-0.635-0.888-1.088-1.144c-0.454-0.256-0.947-0.384-1.48-0.384S802.565,616.9,802.128,617.156z"/>
			<linearGradient id="SVGID_15_" gradientUnits="userSpaceOnUse" x1="769.0732" y1="627.668" x2="949.71" y2="627.668">
				<stop  offset="0" style="stop-color:#FFFFFF"/>
				<stop  offset="1" style="stop-color:#000000"/>
			</linearGradient>
			<path fill="url(#SVGID_15_)" d="M813.969,623.316v1.184h-1.473c-0.746,0-1.314-0.182-1.704-0.544
				c-0.389-0.362-0.584-0.934-0.584-1.712V616.9h-1.136v-1.185h1.136v-2.176h1.473v2.176h2.271v1.185h-2.271v5.344
				c0,0.395,0.08,0.672,0.24,0.832c0.159,0.16,0.442,0.24,0.848,0.24H813.969z"/>
			<linearGradient id="SVGID_16_" gradientUnits="userSpaceOnUse" x1="769.0732" y1="627.668" x2="949.71" y2="627.668">
				<stop  offset="0" style="stop-color:#FFFFFF"/>
				<stop  offset="1" style="stop-color:#000000"/>
			</linearGradient>
			<path fill="url(#SVGID_16_)" d="M815.616,612.612c0.192-0.192,0.421-0.288,0.688-0.288c0.277,0,0.513,0.096,0.704,0.288
				c0.192,0.191,0.288,0.427,0.288,0.704s-0.096,0.512-0.288,0.703c-0.191,0.192-0.427,0.288-0.704,0.288s-0.509-0.096-0.695-0.288
				c-0.187-0.191-0.28-0.426-0.28-0.703S815.424,612.804,815.616,612.612z M817.024,615.716v8.784h-1.456v-8.784H817.024z"/>
			<linearGradient id="SVGID_17_" gradientUnits="userSpaceOnUse" x1="769.0732" y1="627.668" x2="949.71" y2="627.668">
				<stop  offset="0" style="stop-color:#FFFFFF"/>
				<stop  offset="1" style="stop-color:#000000"/>
			</linearGradient>
			<path fill="url(#SVGID_17_)" d="M825.688,616.308c0.667,0.491,1.134,1.189,1.4,2.097h-1.568c-0.171-0.513-0.464-0.912-0.88-1.2
				s-0.928-0.432-1.536-0.432c-0.832,0-1.501,0.29-2.008,0.871c-0.507,0.582-0.76,1.406-0.76,2.473c0,1.056,0.253,1.875,0.76,2.456
				s1.176,0.872,2.008,0.872c0.618,0,1.131-0.139,1.536-0.416s0.698-0.683,0.88-1.217h1.568c-0.267,0.864-0.739,1.553-1.416,2.064
				c-0.678,0.512-1.534,0.768-2.568,0.768c-0.821,0-1.555-0.187-2.2-0.56s-1.149-0.904-1.512-1.592
				c-0.362-0.688-0.544-1.48-0.544-2.376c0-0.906,0.182-1.704,0.544-2.393c0.362-0.688,0.864-1.218,1.504-1.592
				c0.64-0.373,1.376-0.56,2.208-0.56C824.16,615.572,825.021,615.817,825.688,616.308z"/>
			<linearGradient id="SVGID_18_" gradientUnits="userSpaceOnUse" x1="769.0732" y1="627.668" x2="949.71" y2="627.668">
				<stop  offset="0" style="stop-color:#FFFFFF"/>
				<stop  offset="1" style="stop-color:#000000"/>
			</linearGradient>
			<path fill="url(#SVGID_18_)" d="M834.305,616.316c0.554,0.495,0.858,1.176,0.911,2.04h-1.504
				c-0.021-0.491-0.187-0.886-0.496-1.185s-0.735-0.448-1.279-0.448c-0.555,0-0.99,0.131-1.305,0.393s-0.472,0.589-0.472,0.983
				c0,0.331,0.099,0.595,0.296,0.792c0.197,0.198,0.442,0.345,0.736,0.44c0.293,0.096,0.69,0.197,1.191,0.304
				c0.641,0.149,1.155,0.296,1.544,0.44c0.39,0.144,0.723,0.384,1,0.72s0.416,0.792,0.416,1.368c0,0.479-0.139,0.909-0.416,1.288
				s-0.666,0.672-1.168,0.88c-0.501,0.208-1.077,0.312-1.728,0.312c-0.981,0-1.768-0.245-2.36-0.735
				c-0.592-0.49-0.914-1.168-0.968-2.032h1.504c0.021,0.491,0.194,0.883,0.521,1.176c0.325,0.294,0.76,0.44,1.304,0.44
				c0.598,0,1.059-0.123,1.384-0.368s0.488-0.57,0.488-0.976c0-0.331-0.099-0.595-0.296-0.792s-0.445-0.347-0.744-0.448
				s-0.71-0.211-1.232-0.328c-0.629-0.139-1.139-0.28-1.527-0.424c-0.39-0.145-0.721-0.371-0.992-0.681
				c-0.272-0.309-0.408-0.735-0.408-1.279c0-0.48,0.136-0.92,0.408-1.32c0.271-0.4,0.661-0.717,1.168-0.952
				c0.507-0.234,1.096-0.352,1.768-0.352C832.997,615.572,833.749,615.82,834.305,616.316z"/>
			<linearGradient id="SVGID_19_" gradientUnits="userSpaceOnUse" x1="769.0732" y1="627.668" x2="949.71" y2="627.668">
				<stop  offset="0" style="stop-color:#FFFFFF"/>
				<stop  offset="1" style="stop-color:#000000"/>
			</linearGradient>
			<path fill="url(#SVGID_19_)" d="M846.32,623.316v1.184h-1.473c-0.746,0-1.314-0.182-1.704-0.544
				c-0.389-0.362-0.584-0.934-0.584-1.712V616.9h-1.136v-1.185h1.136v-2.176h1.473v2.176h2.271v1.185h-2.271v5.344
				c0,0.395,0.08,0.672,0.24,0.832c0.159,0.16,0.442,0.24,0.848,0.24H846.32z"/>
			<linearGradient id="SVGID_20_" gradientUnits="userSpaceOnUse" x1="769.0732" y1="627.668" x2="949.71" y2="627.668">
				<stop  offset="0" style="stop-color:#FFFFFF"/>
				<stop  offset="1" style="stop-color:#000000"/>
			</linearGradient>
			<path fill="url(#SVGID_20_)" d="M854.031,616.132c0.673,0.374,1.203,0.907,1.593,1.601c0.389,0.693,0.584,1.487,0.584,2.384
				c0,0.886-0.203,1.672-0.608,2.359c-0.405,0.688-0.955,1.222-1.647,1.601c-0.694,0.379-1.462,0.567-2.305,0.567
				c-0.821,0-1.56-0.187-2.216-0.56s-1.168-0.904-1.536-1.592c-0.368-0.688-0.552-1.48-0.552-2.376c0-0.906,0.194-1.704,0.584-2.393
				c0.39-0.688,0.92-1.218,1.592-1.592c0.672-0.373,1.424-0.56,2.256-0.56S853.359,615.759,854.031,616.132z M850.271,617.156
				c-0.438,0.256-0.786,0.635-1.048,1.136c-0.262,0.502-0.392,1.109-0.392,1.824c0,0.704,0.125,1.307,0.376,1.808
				c0.25,0.502,0.589,0.88,1.016,1.136c0.427,0.257,0.901,0.385,1.424,0.385c0.533,0,1.032-0.131,1.496-0.393
				c0.464-0.261,0.84-0.643,1.128-1.144s0.433-1.099,0.433-1.792c0-0.704-0.137-1.31-0.408-1.816
				c-0.272-0.506-0.635-0.888-1.088-1.144c-0.454-0.256-0.947-0.384-1.48-0.384S850.709,616.9,850.271,617.156z"/>
			<linearGradient id="SVGID_21_" gradientUnits="userSpaceOnUse" x1="769.0732" y1="627.668" x2="949.71" y2="627.668">
				<stop  offset="0" style="stop-color:#FFFFFF"/>
				<stop  offset="1" style="stop-color:#000000"/>
			</linearGradient>
			<path fill="url(#SVGID_21_)" d="M869.951,619.764c0.437,0.523,0.655,1.126,0.655,1.809c0,0.544-0.146,1.04-0.439,1.487
				c-0.294,0.448-0.715,0.801-1.264,1.057c-0.55,0.256-1.188,0.384-1.912,0.384h-4.16v-11.088h3.968
				c0.757,0,1.402,0.128,1.936,0.384c0.534,0.256,0.937,0.605,1.208,1.048c0.272,0.443,0.408,0.947,0.408,1.513
				c0,0.618-0.187,1.133-0.56,1.544c-0.374,0.41-0.896,0.712-1.568,0.903C868.938,618.922,869.514,619.241,869.951,619.764z
				 M864.287,618.228h2.447c0.673,0,1.197-0.162,1.576-0.487s0.568-0.766,0.568-1.32c0-0.565-0.189-1.013-0.568-1.344
				s-0.903-0.496-1.576-0.496h-2.447V618.228z M868.566,622.82c0.4-0.353,0.601-0.838,0.601-1.456c0-0.608-0.216-1.088-0.648-1.44
				c-0.432-0.352-1.005-0.527-1.72-0.527h-2.512v3.951h2.624C867.615,623.348,868.167,623.172,868.566,622.82z"/>
			<linearGradient id="SVGID_22_" gradientUnits="userSpaceOnUse" x1="769.0732" y1="627.668" x2="949.71" y2="627.668">
				<stop  offset="0" style="stop-color:#FFFFFF"/>
				<stop  offset="1" style="stop-color:#000000"/>
			</linearGradient>
			<path fill="url(#SVGID_22_)" d="M878.735,616.132c0.673,0.374,1.203,0.907,1.593,1.601c0.389,0.693,0.584,1.487,0.584,2.384
				c0,0.886-0.203,1.672-0.608,2.359c-0.405,0.688-0.955,1.222-1.647,1.601c-0.694,0.379-1.462,0.567-2.305,0.567
				c-0.821,0-1.56-0.187-2.216-0.56s-1.168-0.904-1.536-1.592c-0.368-0.688-0.552-1.48-0.552-2.376c0-0.906,0.194-1.704,0.584-2.393
				c0.39-0.688,0.92-1.218,1.592-1.592c0.672-0.373,1.424-0.56,2.256-0.56S878.063,615.759,878.735,616.132z M874.976,617.156
				c-0.438,0.256-0.786,0.635-1.048,1.136c-0.262,0.502-0.392,1.109-0.392,1.824c0,0.704,0.125,1.307,0.376,1.808
				c0.25,0.502,0.589,0.88,1.016,1.136c0.427,0.257,0.901,0.385,1.424,0.385c0.533,0,1.032-0.131,1.496-0.393
				c0.464-0.261,0.84-0.643,1.128-1.144s0.433-1.099,0.433-1.792c0-0.704-0.137-1.31-0.408-1.816
				c-0.272-0.506-0.635-0.888-1.088-1.144c-0.454-0.256-0.947-0.384-1.48-0.384S875.413,616.9,874.976,617.156z"/>
			<linearGradient id="SVGID_23_" gradientUnits="userSpaceOnUse" x1="769.0732" y1="627.668" x2="949.71" y2="627.668">
				<stop  offset="0" style="stop-color:#FFFFFF"/>
				<stop  offset="1" style="stop-color:#000000"/>
			</linearGradient>
			<path fill="url(#SVGID_23_)" d="M888.847,616.132c0.673,0.374,1.203,0.907,1.593,1.601c0.389,0.693,0.584,1.487,0.584,2.384
				c0,0.886-0.203,1.672-0.608,2.359c-0.405,0.688-0.955,1.222-1.647,1.601c-0.694,0.379-1.462,0.567-2.305,0.567
				c-0.821,0-1.56-0.187-2.216-0.56s-1.168-0.904-1.536-1.592c-0.368-0.688-0.552-1.48-0.552-2.376c0-0.906,0.194-1.704,0.584-2.393
				c0.39-0.688,0.92-1.218,1.592-1.592c0.672-0.373,1.424-0.56,2.256-0.56S888.175,615.759,888.847,616.132z M885.087,617.156
				c-0.438,0.256-0.786,0.635-1.048,1.136c-0.262,0.502-0.392,1.109-0.392,1.824c0,0.704,0.125,1.307,0.376,1.808
				c0.25,0.502,0.589,0.88,1.016,1.136c0.427,0.257,0.901,0.385,1.424,0.385c0.533,0,1.032-0.131,1.496-0.393
				c0.464-0.261,0.84-0.643,1.128-1.144s0.433-1.099,0.433-1.792c0-0.704-0.137-1.31-0.408-1.816
				c-0.272-0.506-0.635-0.888-1.088-1.144c-0.454-0.256-0.947-0.384-1.48-0.384S885.524,616.9,885.087,617.156z"/>
			<linearGradient id="SVGID_24_" gradientUnits="userSpaceOnUse" x1="769.0732" y1="627.668" x2="949.71" y2="627.668">
				<stop  offset="0" style="stop-color:#FFFFFF"/>
				<stop  offset="1" style="stop-color:#000000"/>
			</linearGradient>
			<path fill="url(#SVGID_24_)" d="M898.127,616.316c0.554,0.495,0.858,1.176,0.911,2.04h-1.504
				c-0.021-0.491-0.187-0.886-0.496-1.185s-0.735-0.448-1.279-0.448c-0.555,0-0.99,0.131-1.305,0.393s-0.472,0.589-0.472,0.983
				c0,0.331,0.099,0.595,0.296,0.792c0.197,0.198,0.442,0.345,0.736,0.44c0.293,0.096,0.69,0.197,1.191,0.304
				c0.641,0.149,1.155,0.296,1.544,0.44c0.39,0.144,0.723,0.384,1,0.72s0.416,0.792,0.416,1.368c0,0.479-0.139,0.909-0.416,1.288
				s-0.666,0.672-1.168,0.88c-0.501,0.208-1.077,0.312-1.728,0.312c-0.981,0-1.768-0.245-2.36-0.735
				c-0.592-0.49-0.914-1.168-0.968-2.032h1.504c0.021,0.491,0.194,0.883,0.521,1.176c0.325,0.294,0.76,0.44,1.304,0.44
				c0.598,0,1.059-0.123,1.384-0.368s0.488-0.57,0.488-0.976c0-0.331-0.099-0.595-0.296-0.792s-0.445-0.347-0.744-0.448
				s-0.71-0.211-1.232-0.328c-0.629-0.139-1.139-0.28-1.527-0.424c-0.39-0.145-0.721-0.371-0.992-0.681
				c-0.272-0.309-0.408-0.735-0.408-1.279c0-0.48,0.136-0.92,0.408-1.32c0.271-0.4,0.661-0.717,1.168-0.952
				c0.507-0.234,1.096-0.352,1.768-0.352C896.819,615.572,897.571,615.82,898.127,616.316z"/>
			<linearGradient id="SVGID_25_" gradientUnits="userSpaceOnUse" x1="769.0732" y1="627.668" x2="949.71" y2="627.668">
				<stop  offset="0" style="stop-color:#FFFFFF"/>
				<stop  offset="1" style="stop-color:#000000"/>
			</linearGradient>
			<path fill="url(#SVGID_25_)" d="M905.343,623.316v1.184h-1.473c-0.746,0-1.314-0.182-1.704-0.544
				c-0.389-0.362-0.584-0.934-0.584-1.712V616.9h-1.136v-1.185h1.136v-2.176h1.473v2.176h2.271v1.185h-2.271v5.344
				c0,0.395,0.08,0.672,0.24,0.832c0.159,0.16,0.442,0.24,0.848,0.24H905.343z"/>
			<linearGradient id="SVGID_26_" gradientUnits="userSpaceOnUse" x1="769.0732" y1="627.668" x2="949.71" y2="627.668">
				<stop  offset="0" style="stop-color:#FFFFFF"/>
				<stop  offset="1" style="stop-color:#000000"/>
			</linearGradient>
			<path fill="url(#SVGID_26_)" d="M915.823,623.316v1.184h-1.473c-0.746,0-1.314-0.182-1.704-0.544
				c-0.389-0.362-0.584-0.934-0.584-1.712V616.9h-1.136v-1.185h1.136v-2.176h1.473v2.176h2.271v1.185h-2.271v5.344
				c0,0.395,0.08,0.672,0.24,0.832c0.159,0.16,0.442,0.24,0.848,0.24H915.823z"/>
			<linearGradient id="SVGID_27_" gradientUnits="userSpaceOnUse" x1="769.0732" y1="627.668" x2="949.71" y2="627.668">
				<stop  offset="0" style="stop-color:#FFFFFF"/>
				<stop  offset="1" style="stop-color:#000000"/>
			</linearGradient>
			<path fill="url(#SVGID_27_)" d="M923.534,616.132c0.673,0.374,1.203,0.907,1.593,1.601c0.389,0.693,0.584,1.487,0.584,2.384
				c0,0.886-0.203,1.672-0.608,2.359c-0.405,0.688-0.955,1.222-1.647,1.601c-0.694,0.379-1.462,0.567-2.305,0.567
				c-0.821,0-1.56-0.187-2.216-0.56s-1.168-0.904-1.536-1.592c-0.368-0.688-0.552-1.48-0.552-2.376c0-0.906,0.194-1.704,0.584-2.393
				c0.39-0.688,0.92-1.218,1.592-1.592c0.672-0.373,1.424-0.56,2.256-0.56S922.862,615.759,923.534,616.132z M919.774,617.156
				c-0.438,0.256-0.786,0.635-1.048,1.136c-0.262,0.502-0.392,1.109-0.392,1.824c0,0.704,0.125,1.307,0.376,1.808
				c0.25,0.502,0.589,0.88,1.016,1.136c0.427,0.257,0.901,0.385,1.424,0.385c0.533,0,1.032-0.131,1.496-0.393
				c0.464-0.261,0.84-0.643,1.128-1.144s0.433-1.099,0.433-1.792c0-0.704-0.137-1.31-0.408-1.816
				c-0.272-0.506-0.635-0.888-1.088-1.144c-0.454-0.256-0.947-0.384-1.48-0.384S920.212,616.9,919.774,617.156z"/>
			<linearGradient id="SVGID_28_" gradientUnits="userSpaceOnUse" x1="769.0732" y1="627.668" x2="949.71" y2="627.668">
				<stop  offset="0" style="stop-color:#FFFFFF"/>
				<stop  offset="1" style="stop-color:#000000"/>
			</linearGradient>
			<path fill="url(#SVGID_28_)" d="M933.79,614.564v3.775h3.936v1.136h-3.936v3.872h4.416v1.152h-5.872v-11.088h5.872v1.152H933.79z
				"/>
			<linearGradient id="SVGID_29_" gradientUnits="userSpaceOnUse" x1="769.0732" y1="627.668" x2="949.71" y2="627.668">
				<stop  offset="0" style="stop-color:#FFFFFF"/>
				<stop  offset="1" style="stop-color:#000000"/>
			</linearGradient>
			<path fill="url(#SVGID_29_)" d="M941.149,613.412l3.488,9.536l3.521-9.536h1.552l-4.272,11.088h-1.567l-4.272-11.088H941.149z"/>
			<linearGradient id="SVGID_30_" gradientUnits="userSpaceOnUse" x1="769.0732" y1="627.668" x2="949.71" y2="627.668">
				<stop  offset="0" style="stop-color:#FFFFFF"/>
				<stop  offset="1" style="stop-color:#000000"/>
			</linearGradient>
			<path fill="url(#SVGID_30_)" d="M874.831,642.869l-2.912-4.576h-1.424v4.576h-1.456v-11.088h3.6c0.832,0,1.536,0.142,2.112,0.424
				c0.576,0.283,1.008,0.672,1.296,1.168s0.432,1.054,0.432,1.672c0,0.8-0.239,1.494-0.72,2.08c-0.479,0.587-1.2,0.955-2.16,1.104
				l3.057,4.64H874.831z M870.495,637.142h2.144c0.8,0,1.395-0.185,1.784-0.553s0.584-0.882,0.584-1.544
				c0-0.661-0.192-1.176-0.576-1.544s-0.981-0.552-1.792-0.552h-2.144V637.142z"/>
			<linearGradient id="SVGID_31_" gradientUnits="userSpaceOnUse" x1="769.0732" y1="627.668" x2="949.71" y2="627.668">
				<stop  offset="0" style="stop-color:#FFFFFF"/>
				<stop  offset="1" style="stop-color:#000000"/>
			</linearGradient>
			<path fill="url(#SVGID_31_)" d="M886.814,638.981h-6.991c0.042,0.874,0.317,1.565,0.823,2.071
				c0.507,0.507,1.155,0.761,1.944,0.761c0.598,0,1.102-0.134,1.512-0.4c0.411-0.267,0.712-0.618,0.904-1.056h1.568
				c-0.277,0.768-0.755,1.402-1.433,1.903c-0.677,0.502-1.527,0.752-2.552,0.752c-0.821,0-1.555-0.187-2.2-0.56
				s-1.149-0.904-1.512-1.592c-0.362-0.688-0.544-1.48-0.544-2.376c0-0.906,0.182-1.704,0.544-2.393
				c0.362-0.688,0.875-1.218,1.536-1.592c0.661-0.373,1.424-0.56,2.288-0.56c0.821,0,1.546,0.182,2.176,0.544
				c0.629,0.362,1.12,0.858,1.472,1.487c0.353,0.63,0.528,1.345,0.528,2.145C886.879,638.427,886.857,638.715,886.814,638.981z
				 M885.359,637.925c0-0.564-0.123-1.059-0.368-1.479c-0.246-0.422-0.579-0.744-1-0.968c-0.422-0.225-0.889-0.336-1.4-0.336
				c-0.758,0-1.392,0.247-1.904,0.743c-0.512,0.496-0.794,1.177-0.848,2.04H885.359z"/>
			<linearGradient id="SVGID_32_" gradientUnits="userSpaceOnUse" x1="769.0732" y1="627.668" x2="949.71" y2="627.668">
				<stop  offset="0" style="stop-color:#FFFFFF"/>
				<stop  offset="1" style="stop-color:#000000"/>
			</linearGradient>
			<path fill="url(#SVGID_32_)" d="M891.918,641.509l2.704-7.424h1.568l-3.44,8.784h-1.647l-3.424-8.784h1.552L891.918,641.509z"/>
			<linearGradient id="SVGID_33_" gradientUnits="userSpaceOnUse" x1="769.0732" y1="627.668" x2="949.71" y2="627.668">
				<stop  offset="0" style="stop-color:#FFFFFF"/>
				<stop  offset="1" style="stop-color:#000000"/>
			</linearGradient>
			<path fill="url(#SVGID_33_)" d="M903.694,634.501c0.673,0.374,1.203,0.907,1.593,1.601c0.389,0.693,0.584,1.487,0.584,2.384
				c0,0.886-0.203,1.672-0.608,2.359c-0.405,0.688-0.955,1.222-1.647,1.601c-0.694,0.379-1.462,0.567-2.305,0.567
				c-0.821,0-1.56-0.187-2.216-0.56s-1.168-0.904-1.536-1.592c-0.368-0.688-0.552-1.48-0.552-2.376c0-0.906,0.194-1.704,0.584-2.393
				c0.39-0.688,0.92-1.218,1.592-1.592c0.672-0.373,1.424-0.56,2.256-0.56S903.022,634.128,903.694,634.501z M899.935,635.525
				c-0.438,0.256-0.786,0.635-1.048,1.136c-0.262,0.502-0.392,1.109-0.392,1.824c0,0.704,0.125,1.307,0.376,1.808
				c0.25,0.502,0.589,0.88,1.016,1.136c0.427,0.257,0.901,0.385,1.424,0.385c0.533,0,1.032-0.131,1.496-0.393
				c0.464-0.261,0.84-0.643,1.128-1.144s0.433-1.099,0.433-1.792c0-0.704-0.137-1.31-0.408-1.816
				c-0.272-0.506-0.635-0.888-1.088-1.144c-0.454-0.256-0.947-0.384-1.48-0.384S900.372,635.27,899.935,635.525z"/>
			<linearGradient id="SVGID_34_" gradientUnits="userSpaceOnUse" x1="769.0732" y1="627.668" x2="949.71" y2="627.668">
				<stop  offset="0" style="stop-color:#FFFFFF"/>
				<stop  offset="1" style="stop-color:#000000"/>
			</linearGradient>
			<path fill="url(#SVGID_34_)" d="M909.15,631.029v11.84h-1.456v-11.84H909.15z"/>
			<linearGradient id="SVGID_35_" gradientUnits="userSpaceOnUse" x1="769.0732" y1="627.668" x2="949.71" y2="627.668">
				<stop  offset="0" style="stop-color:#FFFFFF"/>
				<stop  offset="1" style="stop-color:#000000"/>
			</linearGradient>
			<path fill="url(#SVGID_35_)" d="M919.198,634.085v8.784h-1.456v-1.408c-0.288,0.512-0.683,0.899-1.184,1.16
				c-0.502,0.262-1.062,0.392-1.68,0.392c-0.63,0-1.203-0.141-1.721-0.424c-0.518-0.282-0.928-0.701-1.231-1.256
				s-0.456-1.231-0.456-2.032v-5.216h1.439v4.977c0,0.874,0.217,1.544,0.648,2.008s1.021,0.696,1.768,0.696
				c0.747,0,1.336-0.232,1.769-0.696c0.432-0.464,0.647-1.134,0.647-2.008v-4.977H919.198z"/>
			<linearGradient id="SVGID_36_" gradientUnits="userSpaceOnUse" x1="769.0732" y1="627.668" x2="949.71" y2="627.668">
				<stop  offset="0" style="stop-color:#FFFFFF"/>
				<stop  offset="1" style="stop-color:#000000"/>
			</linearGradient>
			<path fill="url(#SVGID_36_)" d="M925.679,641.686v1.184h-1.473c-0.746,0-1.314-0.182-1.704-0.544
				c-0.389-0.362-0.584-0.934-0.584-1.712v-5.344h-1.136v-1.185h1.136v-2.176h1.473v2.176h2.271v1.185h-2.271v5.344
				c0,0.395,0.08,0.672,0.24,0.832c0.159,0.16,0.442,0.24,0.848,0.24H925.679z"/>
			<linearGradient id="SVGID_37_" gradientUnits="userSpaceOnUse" x1="769.0732" y1="627.668" x2="949.71" y2="627.668">
				<stop  offset="0" style="stop-color:#FFFFFF"/>
				<stop  offset="1" style="stop-color:#000000"/>
			</linearGradient>
			<path fill="url(#SVGID_37_)" d="M927.326,630.981c0.192-0.192,0.421-0.288,0.688-0.288c0.277,0,0.513,0.096,0.704,0.288
				c0.192,0.191,0.288,0.427,0.288,0.704s-0.096,0.512-0.288,0.703c-0.191,0.192-0.427,0.288-0.704,0.288s-0.509-0.096-0.695-0.288
				c-0.187-0.191-0.28-0.426-0.28-0.703S927.134,631.173,927.326,630.981z M928.734,634.085v8.784h-1.456v-8.784H928.734z"/>
			<linearGradient id="SVGID_38_" gradientUnits="userSpaceOnUse" x1="769.0732" y1="627.668" x2="949.71" y2="627.668">
				<stop  offset="0" style="stop-color:#FFFFFF"/>
				<stop  offset="1" style="stop-color:#000000"/>
			</linearGradient>
			<path fill="url(#SVGID_38_)" d="M937.245,634.501c0.673,0.374,1.203,0.907,1.593,1.601c0.389,0.693,0.584,1.487,0.584,2.384
				c0,0.886-0.203,1.672-0.608,2.359c-0.405,0.688-0.955,1.222-1.647,1.601c-0.694,0.379-1.462,0.567-2.305,0.567
				c-0.821,0-1.56-0.187-2.216-0.56s-1.168-0.904-1.536-1.592c-0.368-0.688-0.552-1.48-0.552-2.376c0-0.906,0.194-1.704,0.584-2.393
				c0.39-0.688,0.92-1.218,1.592-1.592c0.672-0.373,1.424-0.56,2.256-0.56S936.573,634.128,937.245,634.501z M933.485,635.525
				c-0.438,0.256-0.786,0.635-1.048,1.136c-0.262,0.502-0.392,1.109-0.392,1.824c0,0.704,0.125,1.307,0.376,1.808
				c0.25,0.502,0.589,0.88,1.016,1.136c0.427,0.257,0.901,0.385,1.424,0.385c0.533,0,1.032-0.131,1.496-0.393
				c0.464-0.261,0.84-0.643,1.128-1.144s0.433-1.099,0.433-1.792c0-0.704-0.137-1.31-0.408-1.816
				c-0.272-0.506-0.635-0.888-1.088-1.144c-0.454-0.256-0.947-0.384-1.48-0.384S933.923,635.27,933.485,635.525z"/>
			<linearGradient id="SVGID_39_" gradientUnits="userSpaceOnUse" x1="769.0732" y1="627.668" x2="949.71" y2="627.668">
				<stop  offset="0" style="stop-color:#FFFFFF"/>
				<stop  offset="1" style="stop-color:#000000"/>
			</linearGradient>
			<path fill="url(#SVGID_39_)" d="M947.286,634.365c0.517,0.282,0.928,0.704,1.231,1.264c0.305,0.561,0.456,1.24,0.456,2.04v5.2
				h-1.439v-4.96c0-0.886-0.214-1.558-0.641-2.016c-0.427-0.459-1.019-0.688-1.775-0.688c-0.747,0-1.336,0.229-1.769,0.688
				c-0.432,0.458-0.647,1.13-0.647,2.016v4.96h-1.456v-8.784h1.456v1.424c0.288-0.512,0.683-0.901,1.184-1.168
				s1.062-0.399,1.68-0.399C946.195,633.941,946.769,634.083,947.286,634.365z"/>
		</g>
		<text transform="matrix(1 0 0 1 767.873 624.5)"><tspan x="0" y="0" font-family="'Poppins-Regular'" font-size="16">Robotics to Boost to EV</tspan><tspan x="99.966" y="18.369" font-family="'Poppins-Regular'" font-size="16">Revolution</tspan></text>
	</g>
	<g>
		<text transform="matrix(1 0 0 1 714.9688 733.5)"><tspan x="0" y="0" font-family="'Poppins-Regular'" font-size="16">Accelerating Democratization</tspan><tspan x="122.303" y="18.369" font-family="'Poppins-Regular'" font-size="16">of Automation</tspan></text>
	</g>
	<g>
		<text transform="matrix(1 0 0 1 1026.0938 733.5)"><tspan x="0" y="0" font-family="'Poppins-Regular'" font-size="16">Service Robots to Emerge as the </tspan><tspan x="0" y="18.369" font-family="'Poppins-Regular'" font-size="16">New Growth  Frontier</tspan></text>
	</g>
	<g>
		<text transform="matrix(1 0 0 1 793.1289 783.834)"><tspan x="0" y="0" font-family="'Poppins-Regular'" font-size="16">Defense Robotics to</tspan><tspan x="44.143" y="18.369" font-family="'Poppins-Regular'" font-size="16">Hit Prime Time</tspan></text>
	</g>
	<g>
		<text transform="matrix(1 0 0 1 1026.0938 785.834)"><tspan x="0" y="0" font-family="'Poppins-Regular'" font-size="16">Healthcare to Benefit Most</tspan><tspan x="0" y="18.369" font-family="'Poppins-Regular'" font-size="16">from Robotics</tspan></text>
	</g>
	<g>
		<path fill-rule="evenodd" clip-rule="evenodd" fill="#B7B7B7" d="M977.391,550.542c-9.838-6.963-12.17-20.581-5.206-30.42
			c6.963-9.839,20.583-12.169,30.421-5.207c9.835,6.963,12.171,20.582,5.207,30.421S987.229,557.504,977.391,550.542z"/>
		<path fill-rule="evenodd" clip-rule="evenodd" fill="#04489B" d="M976.566,551.707c-10.481-7.418-12.966-21.927-5.547-32.409
			c7.418-10.482,21.93-12.965,32.41-5.548c10.479,7.418,12.967,21.928,5.548,32.41S987.048,559.124,976.566,551.707z"/>
		<circle fill-rule="evenodd" clip-rule="evenodd" fill="#FFFFFF" cx="990.061" cy="532.745" r="19.64"/>
		<g>
			<g>
				<path fill-rule="evenodd" clip-rule="evenodd" d="M982.182,529.149c0.061-5.699,4.693-10.264,10.37-10.218
					c5.71,0.048,10.299,4.734,10.239,10.459c-0.058,5.653-4.758,10.229-10.433,10.158
					C986.658,539.477,982.123,534.842,982.182,529.149z M992.48,520.531c-4.858,0.025-8.732,3.912-8.731,8.761
					c0,4.755,3.962,8.695,8.725,8.679c4.848-0.016,8.73-3.921,8.719-8.766C1001.18,524.417,997.252,520.508,992.48,520.531z"/>
				<path fill-rule="evenodd" clip-rule="evenodd" d="M981.711,535.891c1.327,1.345,2.695,2.729,4.194,4.246
					c-1.021,0.959-2.443,2.479-4.061,3.749c-1.075,0.844-2.719,0.415-3.648-0.617c-0.961-1.065-1.155-2.719-0.197-3.776
					C979.289,538.068,980.756,536.806,981.711,535.891z"/>
				<path fill-rule="evenodd" clip-rule="evenodd" d="M998.536,529.758c-0.392-0.564-0.783-1.128-1.241-1.788
					c-1.601,1.602-2.979,2.983-4.36,4.364c-1.068,1.068-1.16,1.072-2.234-0.014c-0.658-0.664-1.296-1.349-2.168-2.26
					c-0.585,0.693-1.091,1.318-1.624,1.918c-0.357,0.401-0.798,0.53-1.22,0.108c-0.425-0.424-0.273-0.845,0.105-1.224
					c0.706-0.706,1.415-1.408,2.116-2.118c0.491-0.498,0.969-0.5,1.451,0.006c0.774,0.81,1.549,1.616,2.257,2.353
					c1.44-1.446,2.792-2.806,4.189-4.21c-0.381-0.403-0.88-0.932-1.521-1.608c1.625,0,3.035,0,4.531,0c0,1.408,0,2.841,0,4.275
					C998.725,529.627,998.63,529.691,998.536,529.758z"/>
			</g>
		</g>
	</g>
</g>
<g>
	<g>
		<line fill="none" stroke="#D7D7D7" stroke-miterlimit="10" x1="667.5" y1="479" x2="667.5" y2="806"/>
		<g>
			<g>
				<circle fill="#FFFFFF" cx="667.894" cy="479.261" r="3.76"/>
				<path fill="#D7D7D7" d="M663.634,479.261c0,2.349,1.911,4.26,4.26,4.26s4.26-1.911,4.26-4.26s-1.911-4.26-4.26-4.26
					S663.634,476.912,663.634,479.261S663.634,476.912,663.634,479.261z M671.153,479.261c0,1.798-1.462,3.26-3.26,3.26
					s-3.26-1.462-3.26-3.26s1.462-3.26,3.26-3.26S671.153,477.463,671.153,479.261S671.153,477.463,671.153,479.261z"/>
			</g>
		</g>
		<g>
			<g>
				<circle fill="#FFFFFF" cx="667.894" cy="805.741" r="3.76"/>
				<path fill="#D7D7D7" d="M663.634,805.741c0-2.349,1.911-4.26,4.26-4.26s4.26,1.911,4.26,4.26s-1.911,4.26-4.26,4.26
					S663.634,808.09,663.634,805.741S663.634,808.09,663.634,805.741z M671.153,805.741c0-1.798-1.462-3.26-3.26-3.26
					s-3.26,1.462-3.26,3.26s1.462,3.26,3.26,3.26S671.153,807.539,671.153,805.741S671.153,807.539,671.153,805.741z"/>
			</g>
		</g>
	</g>
</g>
</svg>
